<svg xmlns="http://www.w3.org/2000/svg" viewBox="0 0 512 512">
  <path fill="#FFFFFF"
    d="M256,46
       C316,46 288.7,100.5 341.3,138.7
       C393.9,176.9 437.2,134 455.7,191.1
       C474.2,248.2 413.9,239.2 393.9,300.8
       C373.9,362.4 428,390.6 379.5,425.9
       C331,461.2 321,401 256,401
       C191,401 181,461.2 132.5,425.9
       C84,390.6 138.1,362.4 118.1,300.8
       C98.1,239.2 37.8,248.2 56.3,191.1
       C74.8,134 118.1,176.9 170.7,138.7
       C223.3,100.5 196,46 256,46 Z"/>
</svg>
